<?xml version="1.0" encoding="UTF-8" standalone="no"?>
<svg
   width="18"
   height="18"
   viewBox="0 0 72 18"
   version="1.1"
   xmlns="http://www.w3.org/2000/svg">
  <defs>
    <style type="text/css">
      .icon-normal { fill:none; stroke:#fcfcfc; stroke-width:1.01; stroke-linecap:round; stroke-linejoin:round; }
      .icon-hover { fill:none; stroke:#ffffff; stroke-width:1.01; stroke-linecap:round; stroke-linejoin:round; }
      .bg-hover { fill:#3daeea; }
      .bg-hover-close { fill:#da4453; }
      .bg-pressed { fill:#33a4e0; }
      .bg-pressed-close { fill:#c63d47; }
    </style>
  </defs>
  
  <!-- Active state (normal) -->
  <g id="active-center" transform="translate(0,0)">
    <rect x="0" y="0" width="18" height="18" fill="none" opacity="0.01" />
    <g class="icon-normal"><line x1="5" y1="5" x2="13" y2="13" /></g>
    <g class="icon-normal"><line x1="13" y1="5" x2="5" y2="13" /></g>
  </g>
  
  <!-- Inactive state -->
  <g id="inactive-center" transform="translate(18,0)">
    <rect x="18" y="0" width="18" height="18" fill="none" opacity="0.01" />
    <g class="icon-normal"><line x1="23.0" y1="5" x2="31.0" y2="13" /></g>
    <g class="icon-normal"><line x1="31.0" y1="5" x2="23.0" y2="13" /></g>
  </g>
  
  <!-- Hover state -->
  <g id="hover-center" transform="translate(36,0)">
    <rect x="36" y="0" width="18" height="18" fill="none" opacity="0.01" />
    <circle cx="45" cy="9" r="9" class="bg-hover-close" />
    <g class="icon-hover"><line x1="41.0" y1="5" x2="49.0" y2="13" /></g>
    <g class="icon-hover"><line x1="49.0" y1="5" x2="41.0" y2="13" /></g>
  </g>
  
  <!-- Pressed state -->
  <g id="pressed-center" transform="translate(54,0)">
    <rect x="54" y="0" width="18" height="18" fill="none" opacity="0.01" />
    <circle cx="63" cy="9" r="9" class="bg-pressed-close" />
    <g class="icon-hover"><line x1="59.0" y1="5" x2="67.0" y2="13" /></g>
    <g class="icon-hover"><line x1="67.0" y1="5" x2="59.0" y2="13" /></g>
  </g>
</svg>