<?xml version="1.0" encoding="UTF-8" standalone="no"?>
<svg
   id="svg4306"
   width="18"
   height="18"
   version="1.1"
   style="enable-background:new"
   sodipodi:docname="restore.svg"
   inkscape:version="1.3.2 (091e20ef0f, 2023-11-25)"
   xmlns:inkscape="http://www.inkscape.org/namespaces/inkscape"
   xmlns:sodipodi="http://sodipodi.sourceforge.net/DTD/sodipodi-0.dtd"
   xmlns="http://www.w3.org/2000/svg"
   xmlns:svg="http://www.w3.org/2000/svg"
   xmlns:rdf="http://www.w3.org/1999/02/22-rdf-syntax-ns#"
   xmlns:cc="http://creativecommons.org/ns#"
   xmlns:dc="http://purl.org/dc/elements/1.1/">
  <metadata
     id="metadata28">
    <rdf:RDF>
      <cc:Work
         rdf:about="">
        <dc:format>image/svg+xml</dc:format>
        <dc:type
           rdf:resource="http://purl.org/dc/dcmitype/StillImage" />
      </cc:Work>
    </rdf:RDF>
  </metadata>
  <defs
     id="defs26" />
  <sodipodi:namedview
     inkscape:document-rotation="0"
     pagecolor="#cdcdcd"
     bordercolor="#030303"
     borderopacity="1"
     objecttolerance="10"
     gridtolerance="10"
     guidetolerance="10"
     inkscape:pageopacity="0"
     inkscape:pageshadow="2"
     inkscape:window-width="1920"
     inkscape:window-height="994"
     id="namedview24"
     showgrid="true"
     inkscape:zoom="8"
     inkscape:cx="24.25"
     inkscape:cy="11.8125"
     inkscape:window-x="0"
     inkscape:window-y="0"
     inkscape:window-maximized="1"
     inkscape:current-layer="svg4306"
     inkscape:snap-bbox="true"
     inkscape:bbox-nodes="true"
     inkscape:lockguides="false"
     inkscape:showpageshadow="2"
     inkscape:pagecheckerboard="0"
     inkscape:deskcolor="#d1d1d1">
    <inkscape:grid
       type="xygrid"
       id="grid853"
       originx="-22.000004"
       originy="1.4336743e-06"
       spacingy="1"
       spacingx="1"
       units="px"
       visible="true" />
  </sodipodi:namedview>
  <style
     type="text/css"
     id="current-color-scheme" />
  <g
     id="pressed-center"
     transform="translate(21.999998)">
    <rect
       id="rect4266-3-6"
       width="15.999999"
       height="15.999999"
       x="1.0000008"
       y="1.0000006"
       style="opacity:0.00100002;fill:#000000;fill-opacity:1;fill-rule:nonzero;stroke:none;stroke-width:1.45455;stroke-linecap:round;stroke-linejoin:round;stroke-miterlimit:4;stroke-dasharray:none;stroke-opacity:1" />
    <rect
       y="0"
       x="0"
       height="18"
       width="18"
       id="rect3074-5-5"
       style="opacity:0.01;fill:#ffffff;fill-opacity:0.00392157;stroke:none;stroke-width:1.02899" />
    <circle
       r="7.9999995"
       cy="9"
       cx="9"
       id="path867-5-6-5-2-1-6"
       style="fill:#ffffff;fill-opacity:0.5;stroke-width:0.889745;enable-background:new" />
    <path
       d="M 3.9074362,8 A 0.40779956,0.41381859 0 0 1 4.1956171,8.1213899 L 9.0049355,13.001693 13.814252,8.1213899 a 0.40779956,0.41381859 0 0 1 0.576353,0.584859 L 9.2931084,13.878981 a 0.40779956,0.41381859 0 0 1 -0.5763502,0 L 3.6192611,8.7062489 A 0.40779956,0.41381859 0 0 1 3.9074362,8 Z"
       id="path4-9-2-7"
       style="fill:#000000;fill-opacity:1;stroke-width:0.13693;enable-background:new" />
    <path
       d="M 14.092568,10 A 0.40779926,0.41381878 0 0 1 13.804385,9.87861 L 8.995073,4.9983105 4.1857597,9.87861 A 0.40779926,0.41381878 0 0 1 3.6094042,9.2937518 l 5.097496,-5.1727324 a 0.40779926,0.41381878 0 0 1 0.5763498,0 l 5.097496,5.1727324 A 0.40779926,0.41381878 0 0 1 14.092568,10 Z"
       id="path4-9-2-1-5"
       style="fill:#000000;fill-opacity:1;stroke-width:0.13693;enable-background:new" />
  </g>
  <g
     id="hover-center"
     transform="translate(21.999998)">
    <rect
       style="opacity:0.00100002;fill:#000000;fill-opacity:1;fill-rule:nonzero;stroke:none;stroke-width:1.63636;stroke-linecap:round;stroke-linejoin:round;stroke-miterlimit:4;stroke-dasharray:none;stroke-opacity:1"
       y="-4e-08"
       x="-21.999998"
       height="18"
       width="18"
       id="rect4266-3" />
    <rect
       id="rect4266-3-6-56"
       width="15.999999"
       height="15.999999"
       x="-20.999998"
       y="1.0000006"
       style="opacity:0.00100002;fill:#000000;fill-opacity:1;fill-rule:nonzero;stroke:none;stroke-width:1.45455;stroke-linecap:round;stroke-linejoin:round;stroke-miterlimit:4;stroke-dasharray:none;stroke-opacity:1" />
    <rect
       y="0"
       x="-21.999998"
       height="18"
       width="18"
       id="rect3074-5-5-2"
       style="opacity:0.01;fill:#ffffff;fill-opacity:0.00392157;stroke:none;stroke-width:1.02899" />
    <circle
       r="7.9999995"
       cy="9"
       cx="-12.999999"
       id="path867-5-6-5-2-1-6-9"
       style="fill:#ffffff;fill-opacity:0.6;stroke-width:0.889745;enable-background:new" />
    <path
       d="m -18.092559,8 a 0.40779869,0.41381856 0 0 1 0.288183,0.1213899 l 4.809308,4.8803021 4.8092992,-4.8803021 a 0.40779869,0.41381856 0 0 1 0.5763546,0.5848589 L -12.706898,13.87898 a 0.40779869,0.41381856 0 0 1 -0.576351,0 L -18.380737,8.7062488 A 0.40779869,0.41381856 0 0 1 -18.092559,8 Z"
       id="path4-9-2-7-1"
       style="fill:#000000;fill-opacity:1;stroke-width:0.136929;enable-background:new" />
    <path
       d="M -7.9074244,10 A 0.40779996,0.4138187 0 0 1 -8.1956062,9.87861 L -13.004926,4.9983107 -17.81425,9.87861 a 0.40779996,0.4138187 0 0 1 -0.576354,-0.5848589 l 5.097503,-5.1727316 a 0.40779996,0.4138187 0 0 1 0.576351,0 l 5.0975012,5.1727316 A 0.40779996,0.4138187 0 0 1 -7.9074244,10 Z"
       id="path4-9-2-1-5-2"
       style="fill:#000000;fill-opacity:1;stroke-width:0.136929;enable-background:new" />
  </g>
  <g
     id="active-center"
     transform="translate(-22.000002)">
    <rect
       id="rect4266"
       width="18"
       height="18"
       x="0"
       y="3.0000001e-07"
       style="opacity:0.00100002;fill:#000000;fill-opacity:1;fill-rule:nonzero;stroke:none;stroke-width:1.63636;stroke-linecap:round;stroke-linejoin:round;stroke-miterlimit:4;stroke-dasharray:none;stroke-opacity:1" />
    <rect
       id="rect4266-3-6-7"
       width="15.999999"
       height="15.999999"
       x="1"
       y="1.0000008"
       style="opacity:0.00100002;fill:#000000;fill-opacity:1;fill-rule:nonzero;stroke:none;stroke-width:1.45455;stroke-linecap:round;stroke-linejoin:round;stroke-miterlimit:4;stroke-dasharray:none;stroke-opacity:1;enable-background:new" />
    <path
       d="M 3.9074362,8 A 0.4077994,0.41381862 0 0 1 4.1956168,8.1213899 L 9.0049334,13.001693 13.814249,8.1213899 a 0.4077994,0.41381862 0 0 1 0.576353,0.5848591 l -5.0974964,5.172732 a 0.4077994,0.41381862 0 0 1 -0.5763493,0 L 3.6192611,8.706249 A 0.4077994,0.41381862 0 0 1 3.9074362,8 Z"
       id="path4-9-2-7-9"
       style="fill:#ffffff;fill-opacity:1;stroke-width:0.13693;enable-background:new" />
    <path
       d="M 14.092565,10 A 0.4077995,0.41381877 0 0 1 13.80438,9.87861 L 8.9950666,4.9983108 4.1857508,9.87861 A 0.4077995,0.41381877 0 0 1 3.6093962,9.2937518 L 8.7068944,4.1210196 a 0.4077995,0.41381877 0 0 1 0.5763505,0 L 14.380743,9.2937518 A 0.4077995,0.41381877 0 0 1 14.092565,10 Z"
       id="path4-9-2-1-5-3"
       style="fill:#ffffff;fill-opacity:1;stroke-width:0.13693;enable-background:new" />
  </g>
  <g
     id="inactive-center"
     transform="translate(44.999996)">
    <rect
       style="opacity:0.00100002;fill:#000000;fill-opacity:1;fill-rule:nonzero;stroke:none;stroke-width:1.63636;stroke-linecap:round;stroke-linejoin:round;stroke-miterlimit:4;stroke-dasharray:none;stroke-opacity:1"
       y="0"
       x="0"
       height="18"
       width="18"
       id="rect4266-9" />
    <circle
       style="opacity:0.01;fill:#ffffff;fill-opacity:1;stroke-width:0.819;enable-background:new"
       id="path867-5-6-5-1"
       cx="9"
       cy="9"
       r="7.3636365" />
    <path
       d="M 3.9074358,8 A 0.4077992,0.41381861 0 0 1 4.1956161,8.1213899 L 9.0049304,13.001694 13.814241,8.1213899 a 0.4077992,0.41381861 0 0 1 0.576354,0.584859 L 9.2931014,13.878981 a 0.4077992,0.41381861 0 0 1 -0.5763492,0 L 3.6192609,8.7062489 A 0.4077992,0.41381861 0 0 1 3.9074358,8 Z"
       id="path4-9-2-7-6"
       style="fill:#6f7c91;fill-opacity:1;stroke-width:0.136931;enable-background:new" />
    <path
       d="M 14.092564,10 A 0.40779935,0.41381875 0 0 1 13.80438,9.878609 L 8.9950706,4.9983107 4.1857565,9.878609 A 0.40779935,0.41381875 0 0 1 3.6094009,9.2937515 L 8.7068976,4.1210196 a 0.40779935,0.41381875 0 0 1 0.5763503,0 L 14.380743,9.2937515 A 0.40779935,0.41381875 0 0 1 14.092564,10 Z"
       id="path4-9-2-1-5-0"
       style="fill:#6f7c91;fill-opacity:1;stroke-width:0.13693;enable-background:new" />
  </g>
</svg>
